<svg xmlns="http://www.w3.org/2000/svg" viewBox="0 0 1000 1000"><g id="Warstwa_2" data-name="Warstwa 2"><g id="Warstwa_1-2" data-name="Warstwa 1"><rect width="1000" height="1000" fill="#1d1d1b"/><path d="M283.51,454.1l-2.75,28q15.25-7.26,36-7.26,31.52,0,48.77,15t17.26,42.27q0,29.26-19.38,45t-55.66,15.76q-35.26,0-54.78-14.26T230.73,536.9h47.78q2,9.26,8.88,13.38t19.88,4.12q13.26,0,19.64-5.5t6.38-17.26q0-22-27-22a57.68,57.68,0,0,0-16.88,2.13,30.39,30.39,0,0,0-12.14,7.12h-42L244,415.58H370.06V454.1Z" fill="#fff"/><path d="M549.65,588.42l-10-9.25q-24.52,13.76-57.78,13.76-40,0-61.29-13.76t-21.26-40q0-32,43.27-50.78-10.26-11.26-14.38-19.51a37.64,37.64,0,0,1-4.13-17,38.67,38.67,0,0,1,7.38-23.39q7.38-10.12,21.26-15.76t32.65-5.63q27.25,0,43.27,11.39t16,30.39q0,28.51-39,47.77l36.52,34q8.25-12.51,8.5-32.52h41.27q-.75,37.27-20.51,58.54l35,31.76Zm-81.79-75.79q-10.77,5.5-15.64,10.88a17.31,17.31,0,0,0-4.87,11.88q0,11.26,10.13,17.51t28.39,6.26a50.38,50.38,0,0,0,24.76-6.51Zm14.75-37q11-5,16-10.25a16.94,16.94,0,0,0,5-12A12.72,12.72,0,0,0,498.87,443q-4.75-3.89-13.5-3.88t-13.64,3.63q-4.87,3.63-4.87,10.38a18,18,0,0,0,3.5,10.51Q473.86,468.61,482.61,475.61Z" fill="#fff"/><path d="M671.21,518.63V480.86h19.26q25.28,0,25.27-15.75,0-7.51-6.76-11.76t-19-4.25q-11.51,0-18,4.75t-9.5,15.51l-47.28-4.25q2-17.26,11.64-29.4T653,417.2q16.51-6.37,39-6.37,21.76,0,37.89,5.62t25,16.51a39.32,39.32,0,0,1,8.88,25.64,37.72,37.72,0,0,1-7.38,23q-7.38,10-21.38,15,17,5.5,25.64,16.26t8.63,26q0,25.5-20.64,39.77t-57.91,14.26q-37.77,0-57.78-16.51t-20.51-47h48q2.74,25.27,29.76,25.26,14.26,0,21.64-4.75t7.38-14q0-17.25-29.51-17.26Z" fill="#fff"/></g></g></svg>