<svg xmlns="http://www.w3.org/2000/svg" viewBox="0 0 512 512"><g id="Warstwa_2" data-name="Warstwa 2"><g id="Warstwa_1-2" data-name="Warstwa 1"><rect width="512" height="512" fill="#1d1d1b"/><path d="M94.83,221.83l-2,20.86q11.34-5.4,26.81-5.41,23.46,0,36.31,11.18t12.85,31.47q0,21.78-14.43,33.52T112.9,325.18q-26.27,0-40.79-10.62T55.54,283.47H91.11q1.48,6.88,6.61,10t14.8,3.07q9.87,0,14.62-4.1c3.17-2.72,4.75-7,4.75-12.84q0-16.4-20.11-16.39a43.2,43.2,0,0,0-12.57,1.58,22.68,22.68,0,0,0-9,5.31H58.89l6.52-76.91h93.85v28.68Z" fill="#fff"/><path d="M293,321.83l-7.44-6.89q-18.25,10.24-43,10.24-29.79,0-45.62-10.24t-15.83-29.8q0-23.83,32.21-37.8-7.63-8.39-10.7-14.52a28,28,0,0,1-3.08-12.67,28.75,28.75,0,0,1,5.5-17.41q5.49-7.55,15.83-11.73t24.3-4.19q20.29,0,32.21,8.47t11.92,22.63q0,21.22-29.05,35.57l27.19,25.32q6.14-9.31,6.33-24.21h30.72q-.56,27.75-15.27,43.58l26.07,23.65ZM232.07,265.4q-8,4.11-11.64,8.1a12.89,12.89,0,0,0-3.63,8.85q0,8.38,7.54,13T245.48,300a37.49,37.49,0,0,0,18.43-4.84Zm11-27.56q8.19-3.72,11.91-7.63a12.59,12.59,0,0,0,3.73-8.94,9.47,9.47,0,0,0-3.54-7.73q-3.54-2.88-10-2.88T235,213.36a9,9,0,0,0-3.63,7.72,13.43,13.43,0,0,0,2.6,7.83Q236.54,232.63,243.06,237.84Z" fill="#fff"/><path d="M383.46,269.87V241.75H397.8q18.81,0,18.81-11.73a9.85,9.85,0,0,0-5-8.75q-5-3.17-14.15-3.16-8.56,0-13.41,3.53t-7.08,11.55L341.75,230a42.23,42.23,0,0,1,8.66-21.88q7.17-9,19.46-13.78t29.05-4.75q16.2,0,28.21,4.19t18.62,12.29a29.26,29.26,0,0,1,6.61,19.09,28.09,28.09,0,0,1-5.49,17.13q-5.5,7.45-15.92,11.18,12.66,4.1,19.08,12.1T456.46,285q0,19-15.37,29.6T398,325.18q-28.12,0-43-12.29t-15.27-35h35.75q2.06,18.81,22.16,18.81,10.62,0,16.11-3.54a11.61,11.61,0,0,0,5.49-10.43q0-12.84-22-12.85Z" fill="#fff"/></g></g></svg>