<svg xmlns="http://www.w3.org/2000/svg" viewBox="0 0 891.2 106.67"><g id="Warstwa_2" data-name="Warstwa 2"><g id="Warstwa_1-2" data-name="Warstwa 1"><path d="M0,0H69.55V14.17H26.88V26H67.13V40.21H26.88v23H0Z" fill="#fff"/><path d="M84.34,0h27.31V63.23H84.34Z" fill="#fff"/><path d="M157.44,63.23,123.17,0h29.3l20.62,43.13L193.71,0h28.73L188.17,63.23Z" fill="#fff"/><path d="M234,0h72.68V14H260.56v10.1H303.8v14H260.56V49.24h49.07l-2.27,14H234Z" fill="#fff"/><path d="M323.28,0h23.89l36.56,36.22V0h25.74V63.23H385.86L349,27.1V63.23H323.28Z" fill="#fff"/><path d="M451.57,14.44h-29.3V0h85.91V14.44h-29.3V63.23H451.57Z" fill="#fff"/><path d="M520.84,0h27.31V22.94h33V0h27.31V63.23H581.14v-25h-33v25H520.84Z" fill="#fff"/><path d="M707.87,20a16.34,16.34,0,0,1-3.7,10.58q-3.7,4.56-11.38,7.39l20.77,25.24H684.68L668,41.45H653.25V63.23h-26V0h40.11A95.77,95.77,0,0,1,687,1.68,41.23,41.23,0,0,1,699.4,6.16,17.12,17.12,0,0,1,706,12.58,15.74,15.74,0,0,1,707.87,20Zm-54.62,8.23h13.37q8.25,0,11.59-2a6.3,6.3,0,0,0,3.35-5.71A6,6,0,0,0,678,15.06q-3.56-2-12.23-2H653.25Z" fill="#fff"/><path d="M724.08,0h72.68V14H750.68v10.1h43.24v14H750.68V49.24h49.07l-2.28,14H724.08Z" fill="#fff"/><path d="M813.4,0h72.68V14H840v10.1h43.24v14H840V49.24h49.07l-2.27,14H813.4Z" fill="#fff"/><path d="M1.52,93l1.76-5.2,8.8,3.44v-9.6h5.44v9.6l8.72-3.44L28.16,93,19,96l5.6,7.52-4.24,3.12-5.68-7.84-5.44,7.84L4.8,103.55,10.4,96Z" fill="#fff"/><path d="M110.32,93l1.76-5.2,8.8,3.44v-9.6h5.44v9.6L135,87.79,137,93l-9.12,3,5.6,7.52-4.24,3.12-5.68-7.84-5.44,7.84-4.48-3.12L119.2,96Z" fill="#fff"/><path d="M219.12,93l1.76-5.2,8.8,3.44v-9.6h5.44v9.6l8.72-3.44,1.92,5.2-9.12,3,5.6,7.52L238,106.67l-5.68-7.84-5.44,7.84-4.48-3.12L228,96Z" fill="#fff"/><path d="M327.92,93l1.76-5.2,8.8,3.44v-9.6h5.44v9.6l8.72-3.44,1.92,5.2-9.12,3,5.6,7.52-4.24,3.12-5.68-7.84-5.44,7.84-4.48-3.12L336.8,96Z" fill="#fff"/><path d="M436.72,93l1.76-5.2,8.8,3.44v-9.6h5.44v9.6l8.72-3.44,1.92,5.2-9.12,3,5.6,7.52-4.24,3.12-5.68-7.84-5.44,7.84L440,103.55,445.6,96Z" fill="#fff"/><path d="M647,93l1.76-5.2,8.8,3.44v-9.6H663v9.6l8.72-3.44L673.6,93l-9.12,3,5.6,7.52-4.24,3.12-5.68-7.84-5.44,7.84-4.48-3.12,5.6-7.52Z" fill="#fff"/><path d="M755.76,93l1.76-5.2,8.8,3.44v-9.6h5.44v9.6l8.72-3.44L782.4,93l-9.12,3,5.6,7.52-4.24,3.12L769,98.83l-5.44,7.84L759,103.55l5.6-7.52Z" fill="#fff"/><path d="M864.56,93l1.76-5.2,8.8,3.44v-9.6h5.44v9.6l8.72-3.44L891.2,93l-9.12,3,5.6,7.52-4.24,3.12-5.68-7.84-5.44,7.84-4.48-3.12,5.6-7.52Z" fill="#fff"/></g></g></svg>