<svg xmlns="http://www.w3.org/2000/svg" viewBox="0 0 930.59 368.31"><g id="Warstwa_2" data-name="Warstwa 2"><g id="Warstwa_1-2" data-name="Warstwa 1"><path d="M925.59,368.31H5a5,5,0,0,1,0-10H925.59a5,5,0,0,1,0,10Z" fill="#1d1d1b"/><path d="M23.82,368.31A5,5,0,0,1,22,358.68c1.51-.62,151.87-61.8,200.19-111.78,36.2-37.45,46.61-35.23,61.89-28.07,4.83,2.27,9.83,4.61,17.29,5.1,4.06.27,8.72.68,13.65,1.11,31.5,2.72,79.09,6.85,113.48-9.94l3.69-1.8c15.66-7.66,22.81-11.15,28.6-11.88,7.25-.9,11.21,2.7,16.69,7.69,2.58,2.34,5.79,5.26,10.27,8.67l.42.32.34.4a656.61,656.61,0,0,0,73.16,70.26c70.24,57.49,118.71,69.55,147,69.55a5,5,0,0,1,0,10c-43.55,0-95.18-24.19-153.45-71.91a671.47,671.47,0,0,1-73.94-71c-4.61-3.53-7.88-6.51-10.53-8.92-5.12-4.66-6.23-5.47-8.72-5.16-4.14.52-11.71,4.22-25.45,10.94l-3.69,1.81C396,242.09,346.7,237.82,314.11,235c-4.88-.42-9.49-.82-13.45-1.09-9.34-.62-15.73-3.62-20.87-6-6-2.8-9.57-4.48-15.67-2.29-7.84,2.83-18.89,11.81-34.79,28.25-21,21.71-61.67,47.52-121,76.73C64.45,352.23,26.08,367.79,25.7,368A5,5,0,0,1,23.82,368.31Z" fill="#1d1d1b"/><path d="M884.44,368.31c-61.37,0-117.8-62.53-163.15-112.78-30.09-33.34-58.51-64.83-77.5-64.83-19.78,0-46.75,12.21-78,35.3a423.75,423.75,0,0,0-42.3,35.94,5,5,0,0,1-7.07-7.07c3-3,74.81-74.17,127.35-74.17,23.44,0,50.57,30.07,84.92,68.13,44,48.78,98.81,109.48,155.73,109.48a5,5,0,0,1,0,10Z" fill="#1d1d1b"/><path d="M487.29,368.31a5,5,0,0,1-3-9c15.38-11.74,22.34-25.59,18.61-37-2.84-8.74-11.79-14.33-23.34-14.6-22.23-.5-61.26-17.76-63.84-36.47C414,258.73,427.14,252,438.5,248.5c14.49-4.43,23.24-10.75,25.3-18.27,2.77-10.09-6.55-20.46-6.65-20.57a5,5,0,0,1,7.36-6.77c.54.59,13.14,14.47,9,29.91-3,11.19-13.82,19.69-32.05,25.26-5,1.54-16.66,5.77-15.83,11.8,1.54,11.22,32.93,27.35,54.16,27.84,15.92.36,28.42,8.6,32.62,21.49,5.1,15.69-3.14,33.67-22.05,48.1A5,5,0,0,1,487.29,368.31Z" fill="#1d1d1b"/><path d="M649.79,355.15a5,5,0,0,1-3-9c1.19-.9,29.28-22.6,12.63-53.25-8.4-15.44-21.64-21.36-34.46-27.08-14.35-6.41-29.2-13-33.67-32.72-2.54-11.18-.55-27.39,23.35-41.12a115.54,115.54,0,0,1,28-11.14,5,5,0,0,1,2.27,9.74h0c-.51.12-50.3,12.11-43.89,40.3,3.37,14.81,14.24,19.67,28,25.81s29.15,13,39.16,31.44c20.83,38.32-15.06,65.76-15.43,66A4.89,4.89,0,0,1,649.79,355.15Z" fill="#1d1d1b"/><line x1="124.11" y1="182.7" x2="93.94" y2="165.37" fill="#ededed" stroke="#1d1d1b" stroke-linecap="round" stroke-miterlimit="10" stroke-width="4"/><line x1="109.03" y1="156.64" x2="109.03" y2="191.43" fill="#ededed" stroke="#1d1d1b" stroke-linecap="round" stroke-miterlimit="10" stroke-width="4"/><line x1="123.96" y1="165.12" x2="94.09" y2="182.95" fill="#ededed" stroke="#1d1d1b" stroke-linecap="round" stroke-miterlimit="10" stroke-width="4"/><line x1="228.51" y1="146.67" x2="228.51" y2="165.55" fill="#ededed" stroke="#1d1d1b" stroke-linecap="round" stroke-miterlimit="10" stroke-width="1.76"/><line x1="236.62" y1="151.27" x2="220.4" y2="160.95" fill="#ededed" stroke="#1d1d1b" stroke-linecap="round" stroke-miterlimit="10" stroke-width="1.76"/><line x1="236.7" y1="160.81" x2="220.32" y2="151.4" fill="#ededed" stroke="#1d1d1b" stroke-linecap="round" stroke-miterlimit="10" stroke-width="1.76"/><line x1="256.95" y1="29.44" x2="256.95" y2="58.24" fill="#ededed" stroke="#1d1d1b" stroke-linecap="round" stroke-miterlimit="10" stroke-width="2.69"/><line x1="269.31" y1="36.46" x2="244.58" y2="51.22" fill="#ededed" stroke="#1d1d1b" stroke-linecap="round" stroke-miterlimit="10" stroke-width="2.69"/><line x1="269.43" y1="51.02" x2="244.46" y2="36.67" fill="#ededed" stroke="#1d1d1b" stroke-linecap="round" stroke-miterlimit="10" stroke-width="2.69"/><line x1="350.6" y1="86.47" x2="350.6" y2="108.05" fill="#ededed" stroke="#1d1d1b" stroke-linecap="round" stroke-miterlimit="10" stroke-width="2.01"/><line x1="359.87" y1="91.73" x2="341.34" y2="102.79" fill="#ededed" stroke="#1d1d1b" stroke-linecap="round" stroke-miterlimit="10" stroke-width="2.01"/><line x1="359.96" y1="102.64" x2="341.25" y2="91.88" fill="#ededed" stroke="#1d1d1b" stroke-linecap="round" stroke-miterlimit="10" stroke-width="2.01"/><line x1="439.18" y1="1.01" x2="439.18" y2="22.58" fill="#ededed" stroke="#1d1d1b" stroke-linecap="round" stroke-miterlimit="10" stroke-width="2.01"/><line x1="448.44" y1="6.27" x2="429.91" y2="17.32" fill="#ededed" stroke="#1d1d1b" stroke-linecap="round" stroke-miterlimit="10" stroke-width="2.01"/><line x1="448.53" y1="17.17" x2="429.82" y2="6.42" fill="#ededed" stroke="#1d1d1b" stroke-linecap="round" stroke-miterlimit="10" stroke-width="2.01"/><line x1="551.58" y1="141.41" x2="551.58" y2="162.98" fill="#ededed" stroke="#1d1d1b" stroke-linecap="round" stroke-miterlimit="10" stroke-width="2.01"/><line x1="560.85" y1="146.67" x2="542.32" y2="157.72" fill="#ededed" stroke="#1d1d1b" stroke-linecap="round" stroke-miterlimit="10" stroke-width="2.01"/><line x1="560.94" y1="157.57" x2="542.23" y2="146.82" fill="#ededed" stroke="#1d1d1b" stroke-linecap="round" stroke-miterlimit="10" stroke-width="2.01"/><line x1="648.48" y1="48.05" x2="648.48" y2="75.97" fill="#ededed" stroke="#1d1d1b" stroke-linecap="round" stroke-miterlimit="10" stroke-width="2.6"/><line x1="660.47" y1="54.86" x2="636.5" y2="69.17" fill="#ededed" stroke="#1d1d1b" stroke-linecap="round" stroke-miterlimit="10" stroke-width="2.6"/><line x1="660.59" y1="68.97" x2="636.38" y2="55.06" fill="#ededed" stroke="#1d1d1b" stroke-linecap="round" stroke-miterlimit="10" stroke-width="2.6"/><line x1="791.92" y1="25.67" x2="791.92" y2="47.25" fill="#ededed" stroke="#1d1d1b" stroke-linecap="round" stroke-miterlimit="10" stroke-width="2.01"/><line x1="801.19" y1="30.93" x2="782.66" y2="41.99" fill="#ededed" stroke="#1d1d1b" stroke-linecap="round" stroke-miterlimit="10" stroke-width="2.01"/><line x1="801.28" y1="41.84" x2="782.57" y2="31.09" fill="#ededed" stroke="#1d1d1b" stroke-linecap="round" stroke-miterlimit="10" stroke-width="2.01"/><polygon points="641.48 184.93 672.62 197.94 770.85 299.59 818.08 339.29 861.89 360.17 688.71 363.31 648.48 350.24 667.49 324.57 664.07 291.03 653.8 276.32 606.22 250.65 594.59 226 605.54 204.78 641.48 184.93" fill="#1d1d1b"/><polygon points="465.29 207.67 488.23 224.67 562 296.61 666.37 359.39 491.11 361.74 508.9 334.27 501.84 310.73 465.29 298.44 437.75 290.85 419.96 267.93 430.16 257.11 454.75 246.65 469.4 232.52 465.29 207.67" fill="#1d1d1b"/></g></g></svg>