<svg xmlns="http://www.w3.org/2000/svg" viewBox="0 0 554.99 191.99"><g id="Warstwa_2" data-name="Warstwa 2"><g id="Warstwa_1-2" data-name="Warstwa 1"><path d="M0,32.66,5.06,17.71l25.3,9.89V0H46V27.6l25.07-9.89,5.52,14.95L50.37,41.4,66.47,63,54.28,72,38,49.45,22.31,72,9.43,63,25.53,41.4Z" fill="#fff"/><path d="M119.6,32.66l5.06-14.95L150,27.6V0H165.6V27.6l25.07-9.89,5.52,14.95L170,41.4,186.07,63l-12.19,9L157.55,49.45,141.91,72,129,63l16.1-21.62Z" fill="#fff"/><path d="M239.2,32.66l5.06-14.95,25.3,9.89V0H285.2V27.6l25.07-9.89,5.52,14.95L289.57,41.4,305.67,63l-12.19,9L277.15,49.45,261.51,72l-12.88-9,16.1-21.62Z" fill="#fff"/><path d="M358.8,32.66l5.06-14.95,25.3,9.89V0H404.8V27.6l25.07-9.89,5.52,14.95L409.17,41.4,425.27,63l-12.19,9L396.75,49.45,381.11,72l-12.88-9,16.1-21.62Z" fill="#fff"/><path d="M478.4,32.66l5.06-14.95,25.3,9.89V0H524.4V27.6l25.07-9.89L555,32.66,528.77,41.4,544.87,63l-12.19,9L516.35,49.45,500.71,72l-12.88-9,16.1-21.62Z" fill="#fff"/><path d="M119.6,152.66l5.06-14.95L150,147.6V120H165.6v27.6l25.07-9.89,5.52,14.95L170,161.4,186.07,183l-12.19,9-16.33-22.54L141.91,192,129,183l16.1-21.62Z" fill="#fff"/><path d="M239.2,152.66l5.06-14.95,25.3,9.89V120H285.2v27.6l25.07-9.89,5.52,14.95-26.22,8.74L305.67,183l-12.19,9-16.33-22.54L261.51,192l-12.88-9,16.1-21.62Z" fill="#fff"/><path d="M358.8,152.66l5.06-14.95,25.3,9.89V120H404.8v27.6l25.07-9.89,5.52,14.95-26.22,8.74L425.27,183l-12.19,9-16.33-22.54L381.11,192l-12.88-9,16.1-21.62Z" fill="#fff"/></g></g></svg>