<svg xmlns="http://www.w3.org/2000/svg" viewBox="0 0 1000 1000"><g id="Warstwa_2" data-name="Warstwa 2"><g id="Warstwa_1-2" data-name="Warstwa 1"><rect width="1000" height="1000" fill="#1d1d1b"/><path d="M168,429.6l-4.22,43q23.4-11.13,55.25-11.13,48.33,0,74.81,23t26.47,64.84q0,44.88-29.74,69.05t-85.35,24.17q-54.1,0-84-21.87T87,556.59h73.27q3.06,14.19,13.62,20.52t30.5,6.33q20.33,0,30.11-8.44t9.79-26.47q0-33.75-41.44-33.76-15.35,0-25.89,3.26A46.67,46.67,0,0,0,158.37,529H93.92l13.43-158.44H300.7V429.6Z" fill="#fff"/><path d="M576.15,635.62l-15.34-14.2q-37.6,21.11-88.62,21.1-61.4,0-94-21.1T345.59,560q0-49.11,66.37-77.88-15.73-17.27-22.07-29.92a57.81,57.81,0,0,1-6.32-26.09q0-20.32,11.31-35.87t32.61-24.17q21.3-8.62,50.07-8.63,41.81,0,66.37,17.45t24.55,46.62q0,43.72-59.85,73.27l56,52.18q12.66-19.18,13.05-49.88H641q-1.15,57.17-31.46,89.77l53.71,48.73ZM450.7,519.37q-16.5,8.45-24,16.69t-7.48,18.22q0,17.26,15.53,26.86t43.54,9.59a77.32,77.32,0,0,0,38-10Zm22.64-56.78q16.88-7.66,24.55-15.72a26,26,0,0,0,7.67-18.42q0-10-7.29-15.92t-20.71-5.95q-13.44,0-20.91,5.57t-7.48,15.92a27.57,27.57,0,0,0,5.37,16.11Q459.91,451.86,473.34,462.59Z" fill="#fff"/><path d="M762.6,528.58V470.65h29.53q38.75,0,38.75-24.17,0-11.5-10.36-18t-29.15-6.52q-17.65,0-27.63,7.29T749.17,453l-72.51-6.52Q679.72,420,694.5,401.4T734.59,373q25.32-9.79,59.85-9.79,33.38,0,58.12,8.63t38.36,25.32q13.62,16.69,13.62,39.33a57.9,57.9,0,0,1-11.32,35.29q-11.31,15.34-32.8,23,26.08,8.44,39.33,24.94T913,559.65q0,39.14-31.65,61t-88.81,21.87q-57.93,0-88.62-25.32t-31.46-72.12H746.1q4.21,38.74,45.65,38.74,21.87,0,33.19-7.29t11.32-21.48q0-26.47-45.27-26.47Z" fill="#fff"/></g></g></svg>